<?xml version="1.0" standalone="no"?><!DOCTYPE svg PUBLIC "-//W3C//DTD SVG 1.1//EN" "http://www.w3.org/Graphics/SVG/1.1/DTD/svg11.dtd"><svg t="1542874357519" class="icon" style="" viewBox="0 0 1024 1024" version="1.1" xmlns="http://www.w3.org/2000/svg" p-id="1063" xmlns:xlink="http://www.w3.org/1999/xlink" width="200" height="200"><defs><style type="text/css"></style></defs><path d="M496.8448 5.12C225.792 5.12 5.12 225.6896 5.12 496.7936s220.5696 491.6736 491.6736 491.6736 491.6224-220.672 491.6224-491.6736C988.4672 225.6896 767.8976 5.12 496.896 5.12z m0 914.2784c-233.0624 0-422.656-189.5936-422.656-422.6048s189.5936-422.6048 422.656-422.6048c233.0624 0 422.5536 189.5936 422.5536 422.6048s-189.5936 422.6048-422.5536 422.6048z m311.808-449.8432a71.936 71.936 0 0 0-37.2224-37.2224 67.8912 67.8912 0 0 0-27.5456-5.7344c-19.0464 0-35.7376 6.912-49.408 20.6848-13.824 13.824-20.7872 30.3616-20.7872 49.5616 0 19.2512 6.9632 35.7888 20.7872 49.664 13.6704 13.824 30.3616 20.6336 49.408 20.6336 19.3024 0 35.84-6.8608 49.664-20.6336 13.824-13.8752 20.6848-30.4128 20.6848-49.664 0-9.5744-1.7408-18.688-5.5808-27.2896z m-262.2464-22.3232a71.5776 71.5776 0 0 0-49.4592-20.6848c-19.3024 0-35.7888 6.912-49.664 20.6848-13.824 13.824-20.6848 30.3616-20.6848 49.5616s6.912 35.7888 20.6848 49.664c13.824 13.7728 30.3616 20.5824 49.664 20.5824 19.2 0 35.6864-6.8096 49.5616-20.6336a68.096 68.096 0 0 0 20.6336-49.6128c0-9.5744-1.8432-18.7392-5.5808-27.3408a74.9568 74.9568 0 0 0-15.1552-22.2208z m-247.2448 0a73.6768 73.6768 0 0 0-22.2208-15.0016 66.9184 66.9184 0 0 0-27.3408-5.6832 67.584 67.584 0 0 0-49.5616 20.6848 67.584 67.584 0 0 0-20.736 49.5616c0 19.2 6.912 35.7888 20.6848 49.664 13.824 13.7728 30.2592 20.5824 49.5616 20.5824 19.2 0 35.6864-6.8096 49.5616-20.6336 13.7216-13.824 20.6848-30.4128 20.6848-49.6128a68.096 68.096 0 0 0-5.6832-27.3408 70.656 70.656 0 0 0-14.9504-22.2208z" p-id="1064"></path></svg>