<?xml version="1.0" standalone="no"?><!DOCTYPE svg PUBLIC "-//W3C//DTD SVG 1.1//EN" "http://www.w3.org/Graphics/SVG/1.1/DTD/svg11.dtd"><svg t="1542871468435" class="icon" style="" viewBox="0 0 1024 1024" version="1.1" xmlns="http://www.w3.org/2000/svg" p-id="3743" xmlns:xlink="http://www.w3.org/1999/xlink" width="200" height="200"><defs><style type="text/css"></style></defs><path d="M624 672a32 32 0 0 0 52.8-23.2 34.4 34.4 0 0 0-13.28-26.4 308.64 308.64 0 0 0-97.44-51.2 269.28 269.28 0 0 0 128.8-227.84 265.92 265.92 0 0 0-531.84 1.6 261.44 261.44 0 0 0 127.2 226.24C68.8 648.96 48.96 875.2 48.96 878.56a30.88 30.88 0 0 0 29.76 34.72 33.28 33.28 0 0 0 36.32-29.76c0-11.52 24.8-257.6 310.4-274.08A328.96 328.96 0 0 1 624 672z m-196.96-128a200.64 200.64 0 1 1 201.6-200.64A201.28 201.28 0 0 1 427.04 544z" p-id="3744"></path><path d="M944 537.6l-57.44-58.88A71.68 71.68 0 0 0 784 480L541.12 732.16 467.84 923.2a14.08 14.08 0 0 0 17.28 18.72l209.76-50.24 251.2-253.44A73.44 73.44 0 0 0 944 537.6z m-97.76-17.28l57.44 57.44a13.92 13.92 0 0 1 0 20.16l-27.36 27.36-79.04-74.72 27.36-28.8a14.4 14.4 0 0 1 22.4-1.44z m-10.08 146.56l-131.84 131.36-73.28-76.16L757.92 592zM551.2 867.2L592 763.84l1.44-1.44 73.28 76.16z" p-id="3745"></path></svg>