<?xml version="1.0" standalone="no"?><!DOCTYPE svg PUBLIC "-//W3C//DTD SVG 1.1//EN" "http://www.w3.org/Graphics/SVG/1.1/DTD/svg11.dtd"><svg t="1542874319485" class="icon" style="" viewBox="0 0 1024 1024" version="1.1" xmlns="http://www.w3.org/2000/svg" p-id="661" xmlns:xlink="http://www.w3.org/1999/xlink" width="200" height="200"><defs><style type="text/css"></style></defs><path d="M655.0016 359.424c-11.776 0-23.04 4.608-31.3856 12.9536l-185.3952 185.3952-68.7104-68.608A44.4928 44.4928 0 0 0 306.688 551.936l100.1984 100.0448a44.544 44.544 0 0 0 31.3856 13.3632 44.7488 44.7488 0 0 0 31.3856-13.312l216.7808-216.7296a44.4928 44.4928 0 0 0-31.4368-75.8784z" p-id="662"></path><path d="M912.128 142.4384l-24.6784-0.5632a619.264 619.264 0 0 1-192.768-40.2432C594.0736 61.952 529.664 16.896 528.8448 16.3328L514.8672 6.2464a31.0272 31.0272 0 0 0-35.84-0.5632l-15.0016 10.3424c-0.512 0.4608-64.7168 45.568-165.5808 85.0944a618.2912 618.2912 0 0 1-192.8704 40.2944l-24.9344 0.5632a29.7984 29.7984 0 0 0-28.9792 29.0816v404.992c0 217.6 289.4848 447.744 445.184 447.744 84.3264 0 205.7216-64.9216 302.08-161.4336 92.16-92.416 142.848-193.9456 142.6432-285.7472V171.52a29.184 29.184 0 0 0-29.44-29.1328z m-194.048 674.2528c-88.1152 81.2032-176.4864 118.2208-221.2864 118.2208-114.688 0-355.84-201.0112-355.84-358.8096V228.3008c42.24-4.0448 115.2-14.9504 190.2592-44.3392a1017.344 1017.344 0 0 0 165.5808-82.7904c23.04 14.7456 82.3296 50.176 165.6832 82.7904 75.008 29.44 147.968 40.3456 190.208 44.3392l0.5632 347.8016c-0.1024 72.4992-50.5856 162.4064-135.168 240.5888z" p-id="663"></path></svg>